<svg width="38" height="38" viewBox="0 0 38 38" fill="none" xmlns="http://www.w3.org/2000/svg">
<rect width="38" height="38" rx="12" fill="white"/>
<path fill-rule="evenodd" clip-rule="evenodd" d="M16.3001 25.3001V19.9001H21.7001V25.3001H24.4001V18.0191L19.0001 12.6191L13.6001 18.0191V25.3001H16.3001ZM19.0001 10.0811L27.9191 19.0001H26.2001V27.1001H19.9001V21.7001H18.1001V27.1001H11.8001V19.0001H10.0811L19.0001 10.0811Z" fill="#666AEC"/>
<path fill-rule="evenodd" clip-rule="evenodd" d="M16.3001 25.3001V19.9001H21.7001V25.3001H24.4001V18.0191L19.0001 12.6191L13.6001 18.0191V25.3001H16.3001ZM19.0001 10.0811L27.9191 19.0001H26.2001V27.1001H19.9001V21.7001H18.1001V27.1001H11.8001V19.0001H10.0811L19.0001 10.0811Z" fill="#666AEC"/>
</svg>
