<svg width="18" height="18" viewBox="0 0 18 18" fill="none" xmlns="http://www.w3.org/2000/svg">
<path fill-rule="evenodd" clip-rule="evenodd" d="M14.4655 15C13.7541 16.0629 12.9998 17.1 11.8512 17.1171C10.7027 17.1429 10.3341 16.44 9.03123 16.44C7.7198 16.44 7.31694 17.1 6.22837 17.1429C5.10551 17.1857 4.25694 16.0114 3.53694 14.9743C2.07123 12.8571 0.948371 8.95714 2.45694 6.33429C3.20266 5.03143 4.5398 4.20857 5.98837 4.18286C7.08551 4.16571 8.13123 4.92857 8.80837 4.92857C9.47694 4.92857 10.7455 4.01143 12.0741 4.14857C12.6312 4.17429 14.1912 4.37143 15.1941 5.84571C15.1169 5.89714 13.3341 6.94286 13.3512 9.11143C13.3769 11.7 15.6227 12.5657 15.6484 12.5743C15.6227 12.6343 15.2884 13.8086 14.4655 15ZM9.57123 1.28571C10.1969 0.574286 11.2341 0.0342857 12.0912 0C12.2027 1.00286 11.7998 2.01429 11.1998 2.73429C10.6084 3.46286 9.63123 4.02857 8.67123 3.95143C8.54266 2.96571 9.02266 1.93714 9.57123 1.28571Z" fill="white"/>
</svg>
