<svg width="20" height="18" viewBox="0 0 20 18" fill="none" xmlns="http://www.w3.org/2000/svg">
<path fill-rule="evenodd" clip-rule="evenodd" d="M12.1477 2C10.2308 2 8.6769 3.46525 8.6769 5.27273C8.6769 7.0802 10.2308 8.54545 12.1477 8.54545C14.0645 8.54545 15.6184 7.0802 15.6184 5.27273C15.6184 3.46525 14.0645 2 12.1477 2ZM12.1477 3.55455C13.1542 3.55455 13.9698 4.32364 13.9698 5.27273C13.9698 6.22182 13.1542 6.99091 12.1477 6.99091C11.1413 6.99091 10.3255 6.22165 10.3255 5.27273C10.3255 4.3238 11.1413 3.55455 12.1477 3.55455ZM2.60307 4.45455V6.90909H0V8.54545H2.60307V11H4.33845V8.54545H6.94152V6.90909H4.33845V4.45455H2.60307ZM12.1477 9.36364C9.83093 9.36364 5.20614 10.4518 5.20614 12.6364V15.0909H19.0892V12.6364C19.0892 10.4518 14.4644 9.36364 12.1477 9.36364ZM12.1477 10.9182C14.7247 10.9182 17.4406 12.1127 17.4406 12.6364V13.5364H6.85475V12.6364C6.85475 12.1127 9.54459 10.9182 12.1477 10.9182Z" fill="white"/>
<mask id="mask0_0_456" style="mask-type:luminance" maskUnits="userSpaceOnUse" x="0" y="2" width="20" height="14">
<path fill-rule="evenodd" clip-rule="evenodd" d="M12.1477 2C10.2308 2 8.6769 3.46525 8.6769 5.27273C8.6769 7.0802 10.2308 8.54545 12.1477 8.54545C14.0645 8.54545 15.6184 7.0802 15.6184 5.27273C15.6184 3.46525 14.0645 2 12.1477 2ZM12.1477 3.55455C13.1542 3.55455 13.9698 4.32364 13.9698 5.27273C13.9698 6.22182 13.1542 6.99091 12.1477 6.99091C11.1413 6.99091 10.3255 6.22165 10.3255 5.27273C10.3255 4.3238 11.1413 3.55455 12.1477 3.55455ZM2.60307 4.45455V6.90909H0V8.54545H2.60307V11H4.33845V8.54545H6.94152V6.90909H4.33845V4.45455H2.60307ZM12.1477 9.36364C9.83093 9.36364 5.20614 10.4518 5.20614 12.6364V15.0909H19.0892V12.6364C19.0892 10.4518 14.4644 9.36364 12.1477 9.36364ZM12.1477 10.9182C14.7247 10.9182 17.4406 12.1127 17.4406 12.6364V13.5364H6.85475V12.6364C6.85475 12.1127 9.54459 10.9182 12.1477 10.9182Z" fill="white"/>
</mask>
<g mask="url(#mask0_0_456)">
</g>
</svg>
