<svg width="18" height="18" viewBox="0 0 18 18" fill="none" xmlns="http://www.w3.org/2000/svg">
<path fill-rule="evenodd" clip-rule="evenodd" d="M8.85714 13.7143C7.90571 13.7143 7.14286 12.9429 7.14286 12C7.14286 11.0486 7.90571 10.2857 8.85714 10.2857C9.80392 10.2857 10.5714 11.0532 10.5714 12C10.5714 12.9468 9.80392 13.7143 8.85714 13.7143ZM14 16.2857V7.71429H3.71429V16.2857H14ZM14 6C14.9468 6 15.7143 6.76751 15.7143 7.71429V16.2857C15.7143 17.2325 14.9468 18 14 18H3.71429C2.76286 18 2 17.2286 2 16.2857V7.71429C2 6.76286 2.76286 6 3.71429 6H4.57143V4.28571C4.57143 1.91878 6.49021 0 8.85714 0C9.99378 0 11.0839 0.451529 11.8876 1.25526C12.6913 2.05898 13.1429 3.14907 13.1429 4.28571V6H14ZM8.85714 1.71429C7.43698 1.71429 6.28571 2.86555 6.28571 4.28571V6H11.4286V4.28571C11.4286 2.86555 10.2773 1.71429 8.85714 1.71429Z" fill="white"/>
<mask id="mask0_0_586" style="mask-type:luminance" maskUnits="userSpaceOnUse" x="2" y="0" width="14" height="18">
<path fill-rule="evenodd" clip-rule="evenodd" d="M8.85714 13.7143C7.90571 13.7143 7.14286 12.9429 7.14286 12C7.14286 11.0486 7.90571 10.2857 8.85714 10.2857C9.80392 10.2857 10.5714 11.0532 10.5714 12C10.5714 12.9468 9.80392 13.7143 8.85714 13.7143ZM14 16.2857V7.71429H3.71429V16.2857H14ZM14 6C14.9468 6 15.7143 6.76751 15.7143 7.71429V16.2857C15.7143 17.2325 14.9468 18 14 18H3.71429C2.76286 18 2 17.2286 2 16.2857V7.71429C2 6.76286 2.76286 6 3.71429 6H4.57143V4.28571C4.57143 1.91878 6.49021 0 8.85714 0C9.99378 0 11.0839 0.451529 11.8876 1.25526C12.6913 2.05898 13.1429 3.14907 13.1429 4.28571V6H14ZM8.85714 1.71429C7.43698 1.71429 6.28571 2.86555 6.28571 4.28571V6H11.4286V4.28571C11.4286 2.86555 10.2773 1.71429 8.85714 1.71429Z" fill="white"/>
</mask>
<g mask="url(#mask0_0_586)">
</g>
</svg>
