<svg width="26" height="26" viewBox="0 0 26 26" fill="none" xmlns="http://www.w3.org/2000/svg">
<path fill-rule="evenodd" clip-rule="evenodd" d="M21.8947 12.3158C21.8947 13.9442 21.4294 15.4632 20.6631 16.8042L18.98 15.1211C19.3494 14.2727 19.5684 13.3284 19.5684 12.3158H21.8947ZM16.4211 12.5347L8.21058 4.35158V4.10526C8.21058 1.83799 10.0486 0 12.3158 0C14.5831 0 16.4211 1.83799 16.4211 4.10526V12.3158V12.5347ZM1.73789 1.36843L24.6316 24.2621L22.8937 26L17.16 20.2663C16.1063 20.8958 14.9295 21.32 13.6842 21.5116V26H10.9474V21.5116C6.45895 20.8411 2.73684 16.9821 2.73684 12.3158H5.06316C5.06316 16.4211 8.53895 19.2947 12.3158 19.2947C13.4242 19.2947 14.5053 19.0347 15.4768 18.5832L13.2053 16.3116L12.3158 16.4211C10.0485 16.4211 8.21053 14.5831 8.21053 12.3158V11.3305L0 3.10632L1.73789 1.36843Z" fill="#0A0A0B"/>
</svg>
