<svg width="26" height="28" viewBox="0 0 26 28" fill="none" xmlns="http://www.w3.org/2000/svg">
<path fill-rule="evenodd" clip-rule="evenodd" d="M13 11.6666C11.2667 11.6666 9.5875 11.9583 8.01667 12.5066V16.1233C8.01667 16.59 7.7675 16.9866 7.41 17.1733C6.34833 17.745 5.38417 18.48 4.5175 19.3316C4.33333 19.5416 4.0625 19.67 3.79167 19.67C3.46667 19.67 3.19583 19.53 3.00083 19.32L0.314167 16.4266C0.119167 16.2166 0 15.925 0 15.61C0 15.2833 0.119167 14.9916 0.314167 14.7816C3.61833 11.3983 8.08167 9.33331 13 9.33331C17.9183 9.33331 22.3817 11.3983 25.6858 14.7816C25.8808 14.9916 26 15.2833 26 15.61C26 15.925 25.8808 16.2166 25.6858 16.4266L22.9992 19.32C22.8042 19.53 22.5333 19.67 22.2083 19.67C21.9375 19.67 21.6667 19.5416 21.4717 19.3316C20.6158 18.48 19.6517 17.745 18.59 17.1733C18.2325 16.9866 17.9833 16.59 17.9833 16.1233V12.5066C16.4125 11.9583 14.7333 11.6666 13 11.6666Z" fill="white"/>
</svg>
