<svg width="16" height="16" viewBox="0 0 16 16" fill="none" xmlns="http://www.w3.org/2000/svg">
<path fill-rule="evenodd" clip-rule="evenodd" d="M8 0C12.424 0 16 3.576 16 8C16 12.424 12.424 16 8 16C3.576 16 0 12.424 0 8C0 3.576 3.576 0 8 0ZM10.872 4L8 6.872L5.128 4L4 5.128L6.872 8L4 10.872L5.128 12L8 9.128L10.872 12L12 10.872L9.128 8L12 5.128L10.872 4Z" fill="#666AEC"/>
<mask id="mask0_0_798" style="mask-type:luminance" maskUnits="userSpaceOnUse" x="0" y="0" width="16" height="16">
<path fill-rule="evenodd" clip-rule="evenodd" d="M8 0C12.424 0 16 3.576 16 8C16 12.424 12.424 16 8 16C3.576 16 0 12.424 0 8C0 3.576 3.576 0 8 0ZM10.872 4L8 6.872L5.128 4L4 5.128L6.872 8L4 10.872L5.128 12L8 9.128L10.872 12L12 10.872L9.128 8L12 5.128L10.872 4Z" fill="white"/>
</mask>
<g mask="url(#mask0_0_798)">
</g>
</svg>
