<svg width="18" height="18" viewBox="0 0 18 18" fill="none" xmlns="http://www.w3.org/2000/svg">
<path fill-rule="evenodd" clip-rule="evenodd" d="M11.4545 2C9.64707 2 8.18182 3.46525 8.18182 5.27273C8.18182 7.0802 9.64707 8.54545 11.4545 8.54545C13.262 8.54545 14.7273 7.0802 14.7273 5.27273C14.7273 3.46525 13.262 2 11.4545 2ZM11.4545 3.55455C12.4036 3.55455 13.1727 4.32364 13.1727 5.27273C13.1727 6.22182 12.4036 6.99091 11.4545 6.99091C10.5056 6.99091 9.73636 6.22165 9.73636 5.27273C9.73636 4.3238 10.5056 3.55455 11.4545 3.55455ZM2.45455 4.45455V6.90909H0V8.54545H2.45455V11H4.09091V8.54545H6.54545V6.90909H4.09091V4.45455H2.45455ZM11.4545 9.36364C9.27 9.36364 4.90909 10.4518 4.90909 12.6364V15.0909H18V12.6364C18 10.4518 13.6391 9.36364 11.4545 9.36364ZM11.4545 10.9182C13.8845 10.9182 16.4455 12.1127 16.4455 12.6364V13.5364H6.46364V12.6364C6.46364 12.1127 9 10.9182 11.4545 10.9182Z" fill="white"/>
<mask id="mask0_0_572" style="mask-type:luminance" maskUnits="userSpaceOnUse" x="0" y="2" width="18" height="14">
<path fill-rule="evenodd" clip-rule="evenodd" d="M11.4545 2C9.64707 2 8.18182 3.46525 8.18182 5.27273C8.18182 7.0802 9.64707 8.54545 11.4545 8.54545C13.262 8.54545 14.7273 7.0802 14.7273 5.27273C14.7273 3.46525 13.262 2 11.4545 2ZM11.4545 3.55455C12.4036 3.55455 13.1727 4.32364 13.1727 5.27273C13.1727 6.22182 12.4036 6.99091 11.4545 6.99091C10.5056 6.99091 9.73636 6.22165 9.73636 5.27273C9.73636 4.3238 10.5056 3.55455 11.4545 3.55455ZM2.45455 4.45455V6.90909H0V8.54545H2.45455V11H4.09091V8.54545H6.54545V6.90909H4.09091V4.45455H2.45455ZM11.4545 9.36364C9.27 9.36364 4.90909 10.4518 4.90909 12.6364V15.0909H18V12.6364C18 10.4518 13.6391 9.36364 11.4545 9.36364ZM11.4545 10.9182C13.8845 10.9182 16.4455 12.1127 16.4455 12.6364V13.5364H6.46364V12.6364C6.46364 12.1127 9 10.9182 11.4545 10.9182Z" fill="white"/>
</mask>
<g mask="url(#mask0_0_572)">
</g>
</svg>
