<svg width="18" height="18" viewBox="0 0 18 18" fill="none" xmlns="http://www.w3.org/2000/svg">
<path fill-rule="evenodd" clip-rule="evenodd" d="M10.7143 5.28571H9.42857V9.57143L13.0971 11.7486L13.7143 10.7114L10.7143 8.92857V5.28571ZM10.2857 1C6.02523 1 2.57143 4.4538 2.57143 8.71429H0L3.39429 12.1686L6.85714 8.71429H4.28571C4.28571 5.40058 6.97201 2.71429 10.2857 2.71429C13.5994 2.71429 16.2857 5.40058 16.2857 8.71429C16.2857 12.028 13.5994 14.7143 10.2857 14.7143C8.63143 14.7143 7.13143 14.0371 6.05143 12.9486L4.83429 14.1657C6.23143 15.5714 8.14286 16.4286 10.2857 16.4286C14.5462 16.4286 18 12.9748 18 8.71429C18 4.4538 14.5462 1 10.2857 1Z" fill="white"/>
<mask id="mask0_0_514" style="mask-type:luminance" maskUnits="userSpaceOnUse" x="0" y="1" width="18" height="16">
<path fill-rule="evenodd" clip-rule="evenodd" d="M10.7143 5.28571H9.42857V9.57143L13.0971 11.7486L13.7143 10.7114L10.7143 8.92857V5.28571ZM10.2857 1C6.02523 1 2.57143 4.4538 2.57143 8.71429H0L3.39429 12.1686L6.85714 8.71429H4.28571C4.28571 5.40058 6.97201 2.71429 10.2857 2.71429C13.5994 2.71429 16.2857 5.40058 16.2857 8.71429C16.2857 12.028 13.5994 14.7143 10.2857 14.7143C8.63143 14.7143 7.13143 14.0371 6.05143 12.9486L4.83429 14.1657C6.23143 15.5714 8.14286 16.4286 10.2857 16.4286C14.5462 16.4286 18 12.9748 18 8.71429C18 4.4538 14.5462 1 10.2857 1Z" fill="white"/>
</mask>
<g mask="url(#mask0_0_514)">
</g>
</svg>
