<svg width="18" height="18" viewBox="0 0 18 18" fill="none" xmlns="http://www.w3.org/2000/svg">
<path fill-rule="evenodd" clip-rule="evenodd" d="M16.011 12.069C16.866 10.116 16.866 7.875 16.011 5.931L13.545 7.047C14.085 8.289 14.085 9.702 13.554 10.953L16.011 12.069ZM12.078 1.989C10.125 1.134 7.884 1.134 5.931 1.989L7.047 4.446C8.298 3.915 9.711 3.915 10.962 4.455L12.078 1.989ZM1.989 5.922C1.134 7.884 1.134 10.116 1.989 12.078L4.455 10.953C3.915 9.711 3.915 8.289 4.455 7.038L1.989 5.922ZM5.931 16.011C7.884 16.866 10.125 16.866 12.078 16.002L10.962 13.545C9.72 14.085 8.298 14.085 7.056 13.554L5.931 16.011ZM9 0C11.3869 0 13.6761 0.948212 15.364 2.63604C17.0518 4.32387 18 6.61305 18 9C18 13.9706 13.9706 18 9 18C6.61305 18 4.32387 17.0518 2.63604 15.364C0.948212 13.6761 0 11.3869 0 9C0 6.61305 0.948212 4.32387 2.63604 2.63604C4.32387 0.948212 6.61305 0 9 0ZM9 5.4C7.01178 5.4 5.4 7.01178 5.4 9C5.4 10.9882 7.01178 12.6 9 12.6C10.9882 12.6 12.6 10.9882 12.6 9C12.6 7.01178 10.9882 5.4 9 5.4Z" fill="white"/>
<mask id="mask0_0_58" style="mask-type:luminance" maskUnits="userSpaceOnUse" x="0" y="0" width="18" height="18">
<path fill-rule="evenodd" clip-rule="evenodd" d="M16.011 12.069C16.866 10.116 16.866 7.875 16.011 5.931L13.545 7.047C14.085 8.289 14.085 9.702 13.554 10.953L16.011 12.069ZM12.078 1.989C10.125 1.134 7.884 1.134 5.931 1.989L7.047 4.446C8.298 3.915 9.711 3.915 10.962 4.455L12.078 1.989ZM1.989 5.922C1.134 7.884 1.134 10.116 1.989 12.078L4.455 10.953C3.915 9.711 3.915 8.289 4.455 7.038L1.989 5.922ZM5.931 16.011C7.884 16.866 10.125 16.866 12.078 16.002L10.962 13.545C9.72 14.085 8.298 14.085 7.056 13.554L5.931 16.011ZM9 0C11.3869 0 13.6761 0.948212 15.364 2.63604C17.0518 4.32387 18 6.61305 18 9C18 13.9706 13.9706 18 9 18C6.61305 18 4.32387 17.0518 2.63604 15.364C0.948212 13.6761 0 11.3869 0 9C0 6.61305 0.948212 4.32387 2.63604 2.63604C4.32387 0.948212 6.61305 0 9 0ZM9 5.4C7.01178 5.4 5.4 7.01178 5.4 9C5.4 10.9882 7.01178 12.6 9 12.6C10.9882 12.6 12.6 10.9882 12.6 9C12.6 7.01178 10.9882 5.4 9 5.4Z" fill="white"/>
</mask>
<g mask="url(#mask0_0_58)">
</g>
</svg>
