<svg width="18" height="18" viewBox="0 0 18 18" fill="none" xmlns="http://www.w3.org/2000/svg">
<path fill-rule="evenodd" clip-rule="evenodd" d="M2 0C0.89 0 0 0.89 0 2V16C0 17.11 0.89 18 2 18H16C17.11 18 18 17.11 18 16V2C18 0.89 17.11 0 16 0H2ZM2 2H16V16H2V2ZM4 4V6H14V4H4ZM4 8V10H14V8H4ZM4 12V14H11V12H4Z" fill="white"/>
<mask id="mask0_0_673" style="mask-type:luminance" maskUnits="userSpaceOnUse" x="0" y="0" width="18" height="18">
<path fill-rule="evenodd" clip-rule="evenodd" d="M2 0C0.89 0 0 0.89 0 2V16C0 17.11 0.89 18 2 18H16C17.11 18 18 17.11 18 16V2C18 0.89 17.11 0 16 0H2ZM2 2H16V16H2V2ZM4 4V6H14V4H4ZM4 8V10H14V8H4ZM4 12V14H11V12H4Z" fill="white"/>
</mask>
<g mask="url(#mask0_0_673)">
</g>
</svg>
