<svg width="38" height="38" viewBox="0 0 38 38" fill="none" xmlns="http://www.w3.org/2000/svg">
<path fill-rule="evenodd" clip-rule="evenodd" d="M11.8 12H26.2C27.1941 12 28 12.7835 28 13.75V24.25C28 25.2165 27.1941 26 26.2 26H11.8C10.801 26 10 25.2125 10 24.25V13.75C10 12.7788 10.801 12 11.8 12ZM19 18.125L26.2 13.75H11.8L19 18.125ZM11.8 24.25H26.2V15.8238L19 20.19L11.8 15.8238V24.25Z" fill="white"/>
<path fill-rule="evenodd" clip-rule="evenodd" d="M11.8 12H26.2C27.1941 12 28 12.7835 28 13.75V24.25C28 25.2165 27.1941 26 26.2 26H11.8C10.801 26 10 25.2125 10 24.25V13.75C10 12.7788 10.801 12 11.8 12ZM19 18.125L26.2 13.75H11.8L19 18.125ZM11.8 24.25H26.2V15.8238L19 20.19L11.8 15.8238V24.25Z" fill="white"/>
</svg>
