<svg width="38" height="38" viewBox="0 0 38 38" fill="none" xmlns="http://www.w3.org/2000/svg">
<path fill-rule="evenodd" clip-rule="evenodd" d="M18 11C20.2091 11 22 12.7909 22 15C22 17.2091 20.2091 19 18 19C15.7909 19 14 17.2091 14 15C14 12.7909 15.7909 11 18 11ZM18 13C16.8954 13 16 13.8954 16 15C16 16.1046 16.8954 17 18 17C19.1046 17 20 16.1046 20 15C20 13.8954 19.1046 13 18 13ZM18 20C20.67 20 26 21.33 26 24V27H10V24C10 21.33 15.33 20 18 20ZM18 21.9C15.03 21.9 11.9 23.36 11.9 24V25.1H24.1V24C24.1 23.36 20.97 21.9 18 21.9Z" fill="white"/>
<path fill-rule="evenodd" clip-rule="evenodd" d="M18 11C20.2091 11 22 12.7909 22 15C22 17.2091 20.2091 19 18 19C15.7909 19 14 17.2091 14 15C14 12.7909 15.7909 11 18 11ZM18 13C16.8954 13 16 13.8954 16 15C16 16.1046 16.8954 17 18 17C19.1046 17 20 16.1046 20 15C20 13.8954 19.1046 13 18 13ZM18 20C20.67 20 26 21.33 26 24V27H10V24C10 21.33 15.33 20 18 20ZM18 21.9C15.03 21.9 11.9 23.36 11.9 24V25.1H24.1V24C24.1 23.36 20.97 21.9 18 21.9Z" fill="white"/>
</svg>
