<svg width="16" height="16" viewBox="0 0 16 16" fill="none" xmlns="http://www.w3.org/2000/svg">
<path fill-rule="evenodd" clip-rule="evenodd" d="M5.77778 0C8.96876 0 11.5556 2.5868 11.5556 5.77778C11.5556 7.20889 11.0311 8.52444 10.1689 9.53778L10.4089 9.77778H11.1111L15.5556 14.2222L14.2222 15.5556L9.77778 11.1111V10.4089L9.53778 10.1689C8.52444 11.0311 7.20889 11.5556 5.77778 11.5556C2.5868 11.5556 0 8.96876 0 5.77778C0 2.5868 2.5868 0 5.77778 0ZM5.77778 1.77778C3.55556 1.77778 1.77778 3.55556 1.77778 5.77778C1.77778 8 3.55556 9.77778 5.77778 9.77778C8 9.77778 9.77778 8 9.77778 5.77778C9.77778 3.55556 8 1.77778 5.77778 1.77778Z" fill="#F8F8F9"/>
<mask id="mask0_1280_2320" style="mask-type:luminance" maskUnits="userSpaceOnUse" x="0" y="0" width="16" height="16">
<path fill-rule="evenodd" clip-rule="evenodd" d="M5.77778 0C8.96876 0 11.5556 2.5868 11.5556 5.77778C11.5556 7.20889 11.0311 8.52444 10.1689 9.53778L10.4089 9.77778H11.1111L15.5556 14.2222L14.2222 15.5556L9.77778 11.1111V10.4089L9.53778 10.1689C8.52444 11.0311 7.20889 11.5556 5.77778 11.5556C2.5868 11.5556 0 8.96876 0 5.77778C0 2.5868 2.5868 0 5.77778 0ZM5.77778 1.77778C3.55556 1.77778 1.77778 3.55556 1.77778 5.77778C1.77778 8 3.55556 9.77778 5.77778 9.77778C8 9.77778 9.77778 8 9.77778 5.77778C9.77778 3.55556 8 1.77778 5.77778 1.77778Z" fill="white"/>
</mask>
<g mask="url(#mask0_1280_2320)">
</g>
</svg>
