<svg width="38" height="38" viewBox="0 0 38 38" fill="none" xmlns="http://www.w3.org/2000/svg">
<rect width="38" height="38" rx="12" fill="white"/>
<path fill-rule="evenodd" clip-rule="evenodd" d="M19 11C21.2091 11 23 12.7909 23 15C23 17.2091 21.2091 19 19 19C16.7909 19 15 17.2091 15 15C15 12.7909 16.7909 11 19 11ZM19 13C17.8954 13 17 13.8954 17 15C17 16.1046 17.8954 17 19 17C20.1046 17 21 16.1046 21 15C21 13.8954 20.1046 13 19 13ZM19 20C21.67 20 27 21.33 27 24V27H11V24C11 21.33 16.33 20 19 20ZM19 21.9C16.03 21.9 12.9 23.36 12.9 24V25.1H25.1V24C25.1 23.36 21.97 21.9 19 21.9Z" fill="#666AEC"/>
<path fill-rule="evenodd" clip-rule="evenodd" d="M19 11C21.2091 11 23 12.7909 23 15C23 17.2091 21.2091 19 19 19C16.7909 19 15 17.2091 15 15C15 12.7909 16.7909 11 19 11ZM19 13C17.8954 13 17 13.8954 17 15C17 16.1046 17.8954 17 19 17C20.1046 17 21 16.1046 21 15C21 13.8954 20.1046 13 19 13ZM19 20C21.67 20 27 21.33 27 24V27H11V24C11 21.33 16.33 20 19 20ZM19 21.9C16.03 21.9 12.9 23.36 12.9 24V25.1H25.1V24C25.1 23.36 21.97 21.9 19 21.9Z" fill="#666AEC"/>
</svg>
