<svg width="38" height="38" viewBox="0 0 38 38" fill="none" xmlns="http://www.w3.org/2000/svg">
<rect width="38" height="38" rx="12" fill="white"/>
<path fill-rule="evenodd" clip-rule="evenodd" d="M16.3333 18.1V19.9H14.5556V18.1H16.3333ZM19.8889 18.1V19.9H18.1111V18.1H19.8889ZM23.4444 18.1V19.9H21.6667V18.1H23.4444ZM25.2222 11.8C26.2041 11.8 27 12.6059 27 13.6V26.2C27 27.1941 26.2041 28 25.2222 28H12.7778C11.7911 28 11 27.19 11 26.2V13.6C11 12.6059 11.7959 11.8 12.7778 11.8H13.6667V10H15.4444V11.8H22.5556V10H24.3333V11.8H25.2222ZM25.2222 26.2V16.3H12.7778V26.2H25.2222ZM16.3333 21.7V23.5H14.5556V21.7H16.3333ZM19.8889 21.7V23.5H18.1111V21.7H19.8889ZM23.4444 21.7V23.5H21.6667V21.7H23.4444Z" fill="#666AEC"/>
</svg>
